<?xml version="1.0" encoding="UTF-8"?>
<!-- Generated by jsxcad -->
<!DOCTYPE svg PUBLIC "-//W3C//DTD SVG 1.1 Tiny//EN" "http://www.w3.org/Graphics/SVG/1.1/DTD/svg11-tiny.dtd">
<svg baseProfile="tiny" height="171.73468834714828mm" width="25.000000000000014mm" viewBox="-12.500000000000007 -54.807445696416785 25.000000000000014 171.73468834714828" version="1.1" stroke="black" stroke-width=".1" fill="none" xmlns="http://www.w3.org/2000/svg">
<path fill="#000000" stroke="#000000" d="M3.4207873759010323 -16.209041539231684 L3.4207873759010323 37.492481303407914 L5.5717294472067245 38.082121648801014 L5.5717294472067245 -15.61940119383858 z"/>
<path fill="#000000" stroke="#000000" d="M1.826705121831975 -10.995020318807143 L1.826705121831975 42.706502523832455 L0.37365046793212164 42.471822098298084 L0.37365046793212164 -11.22970074434152 z"/>
<path fill="#000000" stroke="#000000" d="M5.5717294472067245 -15.619401193838561 L5.5717294472067245 38.082121648801056 L7.532932954740703 38.94139584499587 L7.532932954740703 -14.760126997643745 z"/>
<path fill="#000000" stroke="#000000" d="M4.131193871579987 -9.694589240966192 L4.131193871579985 44.0069336016734 L3.1174490092936797 43.233824653399935 L3.117449009293686 -10.467698189239654 z"/>
<path fill="#000000" stroke="#000000" d="M4.777864028930712 -8.744387596773574 L4.777864028930706 44.95713524586601 L4.131193871579974 44.0069336016734 L4.13119387157998 -9.694589240966184 z"/>
<path fill="#000000" stroke="#000000" d="M11.655902867554447 -10.896769560056388 L11.65590286755445 42.8047532825832 L12.28716374604878 44.374702869059035 L12.287163746048776 -9.32681997358055 z"/>
<path fill="#000000" stroke="#000000" d="M5 -7.701522842639564 L5.000000000000003 46.00000000000002 L4.777864028930705 44.95713524586601 L4.777864028930707 -8.744387596773576 z"/>
<path fill="#000000" stroke="#000000" d="M12.499999999999998 -7.701522842639564 L12.499999999999996 46.00000000000002 L12.287163746048773 47.62529713094099 L12.287163746048773 -6.076225711698584 z"/>
<path fill="#000000" stroke="#000000" d="M11.655902867554438 -4.506276125222751 L11.65590286755445 49.195246717416836 L10.62771419662017 50.65638600920709 L10.627714196620175 -3.0451368334324993 z"/>
<path fill="#000000" stroke="#000000" d="M12.287163746048773 -6.076225711698583 L12.287163746048765 47.625297130941 L11.65590286755445 49.195246717416836 L11.655902867554447 -4.50627612522275 z"/>
<path fill="#000000" stroke="#000000" d="M4.131193871579963 -5.708456444312941 L4.13119387157997 47.99306639832665 L4.7778640289306935 47.04286475413403 L4.7778640289307 -6.658658088505556 z"/>
<path fill="#000000" stroke="#000000" d="M7.532932954740707 -0.6429186876354209 L7.532932954740707 53.05860415500415 L5.571729447206732 53.917878351198965 L5.571729447206732 0.21635550855939611 z"/>
<path fill="#000000" stroke="#000000" d="M9.23761146525823 -1.7425651824663315 L9.237611465258224 51.95895766017324 L7.532932954740695 53.05860415500417 L7.532932954740685 -0.6429186876354244 z"/>
<path fill="#000000" stroke="#000000" d="M0.3736504679321198 -4.173344940937654 L0.3736504679321198 49.52817790170194 L1.826705121831975 49.29349747616756 L1.826705121831975 -4.40802536647203 z"/>
<path fill="#000000" stroke="#000000" d="M5.571729447206732 0.21635550855938024 L5.571729447206732 53.91787835119898 L3.42078737590104 54.507518696592086 L3.42078737590104 0.8059958539524814 z"/>
<path fill="#000000" stroke="#000000" d="M1.1533544932912758 1.105922853777167 L1.1533544932912758 54.807445696416714 L-1.1533544932912676 54.807445696416714 L-1.1533544932912676 1.105922853777167 z"/>
<path fill="#000000" stroke="#000000" d="M-1.1533544932912674 1.1059228537771468 L-1.1533544932912674 54.807445696416714 L-3.4207873759010274 54.507518696592044 L-3.4207873759010274 0.8059958539524766 z"/>
<path fill="#000000" stroke="#000000" d="M-3.6652593591491125 -5.29502335925717 L-3.6652593591491156 48.40649948338241 L-2.49999999999999 49.06405942354192 L-2.499999999999987 -4.6374634190976645 z"/>
<path fill="#000000" stroke="#000000" d="M-9.237611465258222 -1.7425651824663324 L-9.237611465258219 51.95895766017325 L-10.627714196620168 50.6563860092071 L-10.627714196620154 -3.0451368334324957 z"/>
<path fill="#000000" stroke="#000000" d="M-7.532932954740688 -0.6429186876354217 L-7.5329329547406845 53.058604155004176 L-9.237611465258215 51.95895766017325 L-9.237611465258214 -1.7425651824663428 z"/>
<path fill="#000000" stroke="#000000" d="M-4.944154131125634 -7.174200713072087 L-4.944154131125638 46.5273221295675 L-4.5048443395120925 47.53511150337534 L-4.50484433951209 -6.166411339264246 z"/>
<path fill="#000000" stroke="#000000" d="M-12.287163746048769 -6.076225711698579 L-12.287163746048769 47.62529713094101 L-12.5 46.00000000000002 L-12.499999999999998 -7.701522842639561 z"/>
<path fill="#000000" stroke="#000000" d="M-11.655902867554444 -4.506276125222738 L-11.655902867554436 49.19524671741684 L-12.287163746048765 47.62529713094101 L-12.287163746048767 -6.076225711698578 z"/>
<path fill="#000000" stroke="#000000" d="M-12.287163746048776 -9.326819973580543 L-12.287163746048774 44.37470286905904 L-11.655902867554454 42.8047532825832 L-11.65590286755445 -10.896769560056384 z"/>
<path fill="#000000" stroke="#000000" d="M-3.6652593591491414 -10.108022326021953 L-3.6652593591491356 43.59350051661763 L-4.5048443395121085 44.4648884966247 L-4.5048443395121005 -9.236634346014878 z"/>
<path fill="#000000" stroke="#000000" d="M-11.65590286755446 -10.896769560056386 L-11.655902867554461 42.8047532825832 L-10.627714196620186 41.34361399079295 L-10.627714196620184 -12.357908851846629 z"/>
<path fill="#000000" stroke="#000000" d="M-10.627714196620195 -12.357908851846629 L-10.627714196620186 41.34361399079296 L-9.237611465258254 40.041042339826795 L-9.237611465258246 -13.660480502812785 z"/>
<path fill="#000000" stroke="#000000" d="M1.1533544932912716 -16.508968539056305 L1.1533544932912716 37.19255430358325 L3.4207873759010323 37.49248130340792 L3.4207873759010323 -16.209041539231634 z"/>
<path fill="#000000" stroke="#000000" d="M-1.1533544932912778 -16.508968539056323 L-1.1533544932912778 37.19255430358323 L1.1533544932912718 37.19255430358323 L1.1533544932912718 -16.508968539056323 z"/>
<path fill="#000000" stroke="#000000" d="M-3.420787375901027 0.8059958539524825 L-3.420787375901027 54.50751869659208 L-5.571729447206724 53.91787835119897 L-5.571729447206724 0.21635550855937885 z"/>
<path fill="#000000" stroke="#000000" d="M-2.5000000000000013 -4.637463419097672 L-2.5000000000000013 49.06405942354191 L-1.1126046697815746 49.44936423751642 L-1.1126046697815746 -4.252158605123167 z"/>
<path fill="#000000" stroke="#000000" d="M7.532932954740719 -14.760126997643713 L7.532932954740712 38.94139584499588 L9.237611465258256 40.041042339826795 L9.237611465258244 -13.660480502812788 z"/>
<path fill="#000000" stroke="#000000" d="M-1.1126046697815746 -4.252158605123177 L-1.1126046697815746 49.449364237516406 L0.3736504679321198 49.52817790170195 L0.3736504679321198 -4.173344940937636 z"/>
<path fill="#000000" stroke="#000000" d="M9.23761146525825 -13.660480502812796 L9.237611465258254 40.04104233982679 L10.627714196620186 41.34361399079295 L10.627714196620182 -12.357908851846634 z"/>
<path fill="#000000" stroke="#000000" d="M10.62771419662018 -12.357908851846632 L10.627714196620177 41.34361399079295 L11.655902867554456 42.8047532825832 L11.65590286755446 -10.896769560056388 z"/>
<path fill="#000000" stroke="#000000" d="M12.287163746048773 -9.32681997358055 L12.287163746048773 44.374702869059035 L12.5 46.00000000000002 L12.5 -7.701522842639565 z"/>
<path fill="#000000" stroke="#000000" d="M3.117449009293656 -4.935347496039479 L3.1174490092936558 48.76617534660011 L4.131193871579958 47.99306639832664 L4.131193871579962 -5.708456444312949 z"/>
<path fill="#000000" stroke="#000000" d="M10.627714196620165 -3.045136833432507 L10.627714196620163 50.65638600920708 L9.23761146525823 51.95895766017325 L9.23761146525823 -1.7425651824663395 z"/>
<path fill="#000000" stroke="#000000" d="M4.7778640289307015 -6.6586580885055575 L4.777864028930702 47.04286475413403 L4.999999999999998 46.00000000000002 L4.999999999999997 -7.701522842639564 z"/>
<path fill="#000000" stroke="#000000" d="M1.826705121831975 -4.408025366472013 L1.826705121831975 49.29349747616757 L3.1174490092936686 48.76617534660009 L3.1174490092936686 -4.935347496039494 z"/>
<path fill="#000000" stroke="#000000" d="M3.4207873759010403 0.805995853952481 L3.4207873759010403 54.50751869659205 L1.1533544932912756 54.80744569641673 L1.1533544932912756 1.105922853777155 z"/>
<path fill="#000000" stroke="#000000" d="M3.117449009293667 -10.467698189239657 L3.117449009293667 43.23382465339991 L1.8267051218319752 42.70650252383243 L1.8267051218319752 -10.995020318807137 z"/>
<path fill="#000000" stroke="#000000" d="M-5.571729447206724 0.21635550855939034 L-5.571729447206724 53.91787835119896 L-7.5329329547407 53.05860415500415 L-7.5329329547407 -0.6429186876354238 z"/>
<path fill="#000000" stroke="#000000" d="M0.37365046793212164 -11.229700744341507 L0.37365046793212164 42.471822098298055 L-1.1126046697815712 42.5506357624836 L-1.1126046697815712 -11.150887080155966 z"/>
<path fill="#000000" stroke="#000000" d="M-4.50484433951209 -6.166411339264245 L-4.5048443395120925 47.53511150337534 L-3.6652593591491205 48.40649948338241 L-3.665259359149117 -5.295023359257177 z"/>
<path fill="#000000" stroke="#000000" d="M-3.4207873759010377 -16.20904153923165 L-3.4207873759010377 37.49248130340795 L-1.1533544932912776 37.19255430358327 L-1.1533544932912776 -16.508968539056323 z"/>
<path fill="#000000" stroke="#000000" d="M-1.1126046697815712 -11.150887080155984 L-1.1126046697815712 42.550635762483594 L-2.4999999999999987 42.9359405764581 L-2.4999999999999987 -10.76558226618148 z"/>
<path fill="#000000" stroke="#000000" d="M-10.627714196620166 -3.045136833432495 L-10.627714196620174 50.65638600920709 L-11.655902867554435 49.19524671741684 L-11.655902867554444 -4.506276125222738 z"/>
<path fill="#000000" stroke="#000000" d="M-5.571729447206731 -15.619401193838536 L-5.571729447206731 38.082121648801035 L-3.4207873759010377 37.49248130340793 L-3.4207873759010377 -16.209041539231638 z"/>
<path fill="#000000" stroke="#000000" d="M-4.944154131125643 -8.228844972207046 L-4.944154131125643 45.47267787043254 L-4.944154131125643 46.5273221295675 L-4.944154131125643 -7.174200713072086 z"/>
<path fill="#000000" stroke="#000000" d="M-7.532932954740707 -14.76012699764374 L-7.532932954740707 38.94139584499585 L-5.571729447206731 38.082121648801035 L-5.571729447206731 -15.619401193838556 z"/>
<path fill="#000000" stroke="#000000" d="M-2.5000000000000213 -10.765582266181466 L-2.5000000000000147 42.93594057645814 L-3.665259359149142 43.593500516617645 L-3.665259359149148 -10.108022326021961 z"/>
<path fill="#000000" stroke="#000000" d="M-12.5 -7.701522842639561 L-12.500000000000002 46.00000000000002 L-12.287163746048774 44.37470286905904 L-12.287163746048774 -9.326819973580543 z"/>
<path fill="#000000" stroke="#000000" d="M-9.237611465258258 -13.660480502812788 L-9.237611465258269 40.041042339826795 L-7.532932954740712 38.941395844995874 L-7.532932954740731 -14.760126997643711 z"/>
<path fill="#000000" stroke="#000000" d="M-4.5048443395121 -9.236634346014885 L-4.5048443395121 44.4648884966247 L-4.944154131125644 45.47267787043254 L-4.944154131125644 -8.228844972207044 z"/>
<path fill="#000000" stroke="#000000" d="M3.4207873759010328 -16.209041539231627 L5.571729447206725 -15.619401193838529 L7.532932954740704 -14.760126997643715 L9.237611465258237 -13.660480502812792 L10.627714196620175 -12.357908851846634 L11.655902867554447 -10.896769560056386 L12.287163746048773 -9.32681997358055 L12.5 -7.701522842639565 L12.287163746048774 -6.076225711698584 L11.655902867554452 -4.506276125222749 L10.62771419662018 -3.0451368334324997 L9.23761146525824 -1.7425651824663377 L7.532932954740708 -0.642918687635418 L5.5717294472067325 0.21635550855939886 L3.4207873759010408 0.8059958539524998 L1.1533544932912758 1.1059228537771737 L-1.1533544932912676 1.1059228537771737 L-3.420787375901028 0.8059958539525036 L-5.5717294472067245 0.21635550855940014 L-7.532932954740701 -0.6429186876354143 L-9.237611465258235 -1.742565182466334 L-10.627714196620174 -3.045136833432492 L-11.655902867554445 -4.506276125222739 L-12.28716374604877 -6.076225711698578 L-12.5 -7.701522842639561 L-12.287163746048774 -9.326819973580545 L-11.655902867554449 -10.896769560056383 L-10.62771419662018 -12.357908851846629 L-9.237611465258242 -13.66048050281279 L-7.532932954740708 -14.760126997643711 L-5.571729447206732 -15.619401193838529 L-3.420787375901038 -16.209041539231627 L-1.1533544932912778 -16.5089685390563 L1.1533544932912718 -16.5089685390563 M1.8267051218319754 -10.995020318807128 L0.3736504679321217 -11.229700744341505 L-1.1126046697815715 -11.150887080155965 L-2.499999999999999 -10.765582266181461 L-3.665259359149131 -10.108022326021954 L-4.504844339512095 -9.236634346014885 L-4.944154131125643 -8.228844972207044 L-4.944154131125643 -7.174200713072085 L-4.504844339512096 -6.166411339264245 L-3.6652593591491325 -5.295023359257175 L-2.5000000000000018 -4.637463419097668 L-1.1126046697815748 -4.252158605123164 L0.37365046793211987 -4.173344940937623 L1.8267051218319752 -4.408025366472 L3.117449009293669 -4.93534749603948 L4.131193871579974 -5.708456444312943 L4.777864028930706 -6.6586580885055575 L5 -7.701522842639565 L4.777864028930703 -8.744387596773576 L4.131193871579974 -9.694589240966184 L3.1174490092936673 -10.46769818923965 z"/>
<path fill="#000000" stroke="#000000" d="M5.571729447206725 38.082121648801056 L3.4207873759010328 37.49248130340795 L1.1533544932912718 37.192554303583286 L-1.1533544932912778 37.192554303583286 L-3.420787375901038 37.49248130340795 L-5.571729447206732 38.082121648801056 L-7.532932954740708 38.941395844995874 L-9.237611465258242 40.041042339826795 L-10.62771419662018 41.34361399079295 L-11.655902867554449 42.8047532825832 L-12.287163746048774 44.37470286905904 L-12.5 46.00000000000003 L-12.28716374604877 47.62529713094101 L-11.655902867554445 49.19524671741684 L-10.627714196620174 50.6563860092071 L-9.237611465258235 51.95895766017325 L-7.532932954740701 53.05860415500417 L-5.5717294472067245 53.917878351198986 L-3.420787375901028 54.50751869659209 L-1.1533544932912676 54.807445696416764 L1.1533544932912758 54.807445696416764 L3.4207873759010408 54.507518696592086 L5.5717294472067325 53.917878351198986 L7.532932954740708 53.05860415500417 L9.23761146525824 51.95895766017325 L10.62771419662018 50.65638600920709 L11.655902867554452 49.195246717416836 L12.287163746048774 47.625297130941 L12.5 46.00000000000002 L12.287163746048773 44.374702869059035 L11.655902867554447 42.8047532825832 L10.627714196620175 41.343613990792946 L9.237611465258237 40.041042339826795 L7.532932954740704 38.941395844995874 M1.8267051218319754 42.706502523832455 L3.1174490092936673 43.233824653399935 L4.131193871579974 44.0069336016734 L4.777864028930703 44.95713524586601 L5 46.00000000000002 L4.777864028930706 47.04286475413403 L4.131193871579974 47.99306639832665 L3.117449009293669 48.76617534660011 L1.8267051218319752 49.29349747616759 L0.37365046793211987 49.528177901701966 L-1.1126046697815748 49.44936423751642 L-2.5000000000000018 49.06405942354192 L-3.6652593591491325 48.40649948338241 L-4.504844339512096 47.53511150337534 L-4.944154131125643 46.5273221295675 L-4.944154131125643 45.47267787043254 L-4.504844339512095 44.4648884966247 L-3.665259359149131 43.59350051661763 L-2.499999999999999 42.93594057645813 L-1.1126046697815715 42.550635762483616 L0.3736504679321217 42.47182209829808 z"/>
<path fill="#000000" stroke="#000000" d="M3.4207873759010323 -116.62731565090677 L3.4207873759010323 -19.1166557524296 L5.5717294472067245 -18.5270154070365 L5.5717294472067245 -116.03767530551367 z"/>
<path fill="#000000" stroke="#000000" d="M1.8267051218319752 -111.41329443048227 L1.8267051218319752 -13.902634532005102 L0.3736504679321216 -14.137314957539479 L0.3736504679321216 -111.64797485601665 z"/>
<path fill="#000000" stroke="#000000" d="M5.5717294472067245 -116.03767530551367 L5.5717294472067245 -18.52701540703651 L7.532932954740703 -17.667741210841697 L7.532932954740703 -115.17840110931886 z"/>
<path fill="#000000" stroke="#000000" d="M4.131193871579993 -110.11286335264128 L4.131193871579998 -12.602203454164156 L3.1174490092936975 -13.375312402437629 L3.117449009293681 -110.88597230091477 z"/>
<path fill="#000000" stroke="#000000" d="M4.777864028930714 -109.1626617084487 L4.777864028930722 -11.65200180997155 L4.131193871579977 -12.602203454164151 L4.131193871579978 -110.1128633526413 z"/>
<path fill="#000000" stroke="#000000" d="M11.655902867554458 -111.31504367173149 L11.655902867554452 -13.804383773254354 L12.287163746048774 -12.234434186778516 L12.28716374604878 -109.74509408525566 z"/>
<path fill="#000000" stroke="#000000" d="M5.000000000000002 -108.11979695431467 L5.0000000000000036 -10.609137055837532 L4.77786402893071 -11.652001809971546 L4.777864028930704 -109.16266170844868 z"/>
<path fill="#000000" stroke="#000000" d="M12.499999999999998 -108.11979695431468 L12.499999999999996 -10.609137055837534 L12.28716374604877 -8.983839924896552 L12.287163746048773 -106.4944998233737 z"/>
<path fill="#000000" stroke="#000000" d="M11.655902867554442 -104.92455023689787 L11.655902867554442 -7.413890338420718 L10.627714196620175 -5.95275104663047 L10.627714196620172 -103.46341094510761 z"/>
<path fill="#000000" stroke="#000000" d="M12.287163746048769 -106.49449982337369 L12.287163746048765 -8.983839924896552 L11.655902867554447 -7.413890338420716 L11.655902867554444 -104.92455023689786 z"/>
<path fill="#000000" stroke="#000000" d="M4.131193871579961 -106.12673055598806 L4.131193871579961 -8.616070657510916 L4.77786402893069 -9.56627230170353 L4.7778640289307015 -107.07693220018066 z"/>
<path fill="#000000" stroke="#000000" d="M7.532932954740707 -101.06119279931055 L7.532932954740707 -3.550532900833393 L5.571729447206732 -2.691258704638576 L5.571729447206732 -100.20191860311573 z"/>
<path fill="#000000" stroke="#000000" d="M9.237611465258212 -102.16083929414145 L9.237611465258212 -4.650179395664321 L7.532932954740686 -3.550532900833384 L7.532932954740691 -101.06119279931055 z"/>
<path fill="#000000" stroke="#000000" d="M0.37365046793211976 -104.59161905261276 L0.37365046793211976 -7.080959154135631 L1.826705121831975 -7.315639579670008 L1.826705121831975 -104.82629947814713 z"/>
<path fill="#000000" stroke="#000000" d="M5.571729447206732 -100.20191860311574 L5.571729447206732 -2.691258704638575 L3.4207873759010403 -2.101618359245474 L3.4207873759010403 -99.61227825772265 z"/>
<path fill="#000000" stroke="#000000" d="M1.1533544932912758 -99.31235125789794 L1.1533544932912758 -1.8016913594208197 L-1.1533544932912676 -1.8016913594208197 L-1.1533544932912676 -99.31235125789794 z"/>
<path fill="#000000" stroke="#000000" d="M-1.1533544932912674 -99.31235125789799 L-1.1533544932912674 -1.8016913594208241 L-3.420787375901027 -2.101618359245494 L-3.420787375901027 -99.61227825772265 z"/>
<path fill="#000000" stroke="#000000" d="M-3.665259359149106 -105.71329747093229 L-3.66525935914912 -8.202637572455139 L-2.499999999999968 -7.545077632295625 L-2.499999999999979 -105.0557375307728 z"/>
<path fill="#000000" stroke="#000000" d="M-9.237611465258215 -102.16083929414145 L-9.23761146525821 -4.650179395664308 L-10.627714196620142 -5.952751046630467 L-10.627714196620161 -103.4634109451076 z"/>
<path fill="#000000" stroke="#000000" d="M-7.532932954740696 -101.06119279931053 L-7.53293295474068 -3.550532900833376 L-9.237611465258205 -4.650179395664313 L-9.237611465258203 -102.16083929414144 z"/>
<path fill="#000000" stroke="#000000" d="M-4.944154131125637 -107.5924748247472 L-4.944154131125638 -10.08181492627005 L-4.504844339512091 -9.074025552462214 L-4.504844339512088 -106.58468545093935 z"/>
<path fill="#000000" stroke="#000000" d="M-12.287163746048769 -106.4944998233737 L-12.287163746048769 -8.983839924896548 L-12.499999999999998 -10.609137055837529 L-12.499999999999998 -108.11979695431468 z"/>
<path fill="#000000" stroke="#000000" d="M-11.65590286755444 -104.92455023689786 L-11.655902867554438 -7.4138903384207095 L-12.287163746048769 -8.983839924896547 L-12.287163746048764 -106.4944998233737 z"/>
<path fill="#000000" stroke="#000000" d="M-12.287163746048774 -109.74509408525566 L-12.28716374604878 -12.234434186778515 L-11.655902867554449 -13.804383773254353 L-11.655902867554452 -111.3150436717315 z"/>
<path fill="#000000" stroke="#000000" d="M-3.6652593591491467 -110.52629643769707 L-3.665259359149136 -13.015636539219924 L-4.50484433951211 -12.144248559212851 L-4.5048443395121 -109.65490845769 z"/>
<path fill="#000000" stroke="#000000" d="M-11.655902867554452 -111.3150436717315 L-11.65590286755445 -13.80438377325435 L-10.627714196620188 -15.265523065044595 L-10.627714196620188 -112.77618296352175 z"/>
<path fill="#000000" stroke="#000000" d="M-10.627714196620198 -112.77618296352173 L-10.6277141966202 -15.265523065044595 L-9.237611465258267 -16.568094716010755 L-9.237611465258267 -114.0787546144879 z"/>
<path fill="#000000" stroke="#000000" d="M1.1533544932912716 -116.92724265073147 L1.1533544932912716 -19.416582752254282 L3.4207873759010323 -19.11665575242961 L3.4207873759010323 -116.62731565090681 z"/>
<path fill="#000000" stroke="#000000" d="M-1.1533544932912778 -116.92724265073146 L-1.1533544932912778 -19.416582752254314 L1.1533544932912718 -19.416582752254314 L1.1533544932912718 -116.92724265073146 z"/>
<path fill="#000000" stroke="#000000" d="M-3.420787375901027 -99.61227825772264 L-3.420787375901027 -2.1016183592454807 L-5.571729447206724 -2.691258704638584 L-5.571729447206724 -100.20191860311574 z"/>
<path fill="#000000" stroke="#000000" d="M-2.5000000000000013 -105.05573753077282 L-2.5000000000000013 -7.545077632295667 L-1.1126046697815746 -7.159772818321163 L-1.1126046697815746 -104.6704327167983 z"/>
<path fill="#000000" stroke="#000000" d="M7.532932954740727 -115.17840110931883 L7.532932954740735 -17.66774121084168 L9.237611465258242 -16.568094716010766 L9.237611465258267 -114.0787546144879 z"/>
<path fill="#000000" stroke="#000000" d="M-1.1126046697815746 -104.67043271679829 L-1.1126046697815746 -7.159772818321183 L0.37365046793211976 -7.080959154135642 L0.37365046793211976 -104.59161905261276 z"/>
<path fill="#000000" stroke="#000000" d="M9.237611465258242 -114.0787546144879 L9.23761146525825 -16.568094716010755 L10.627714196620182 -15.265523065044599 L10.62771419662019 -112.77618296352176 z"/>
<path fill="#000000" stroke="#000000" d="M10.627714196620184 -112.77618296352175 L10.627714196620177 -15.2655230650446 L11.655902867554456 -13.80438377325436 L11.655902867554452 -111.31504367173149 z"/>
<path fill="#000000" stroke="#000000" d="M12.287163746048774 -109.74509408525567 L12.287163746048773 -12.234434186778518 L12.5 -10.609137055837534 L12.5 -108.11979695431467 z"/>
<path fill="#000000" stroke="#000000" d="M3.117449009293648 -105.3536216077146 L3.1174490092936407 -7.842961709237459 L4.131193871579965 -8.616070657510914 L4.131193871579949 -106.12673055598805 z"/>
<path fill="#000000" stroke="#000000" d="M10.627714196620174 -103.46341094510761 L10.627714196620154 -5.952751046630481 L9.237611465258219 -4.650179395664318 L9.237611465258224 -102.16083929414145 z"/>
<path fill="#000000" stroke="#000000" d="M4.777864028930703 -107.07693220018068 L4.7778640289307015 -9.566272301703528 L4.999999999999992 -10.609137055837532 L4.999999999999996 -108.11979695431467 z"/>
<path fill="#000000" stroke="#000000" d="M1.826705121831975 -104.82629947814713 L1.826705121831975 -7.315639579669973 L3.1174490092936686 -7.842961709237454 L3.1174490092936686 -105.35362160771462 z"/>
<path fill="#000000" stroke="#000000" d="M3.42078737590104 -99.61227825772264 L3.42078737590104 -2.101618359245518 L1.1533544932912756 -1.8016913594208441 L1.1533544932912756 -99.31235125789796 z"/>
<path fill="#000000" stroke="#000000" d="M3.117449009293667 -110.88597230091479 L3.117449009293667 -13.375312402437654 L1.8267051218319752 -13.902634532005134 L1.8267051218319752 -111.41329443048227 z"/>
<path fill="#000000" stroke="#000000" d="M-5.571729447206724 -100.20191860311574 L-5.571729447206724 -2.691258704638592 L-7.5329329547407005 -3.5505329008334066 L-7.5329329547407005 -101.06119279931056 z"/>
<path fill="#000000" stroke="#000000" d="M0.37365046793212164 -111.64797485601665 L0.37365046793212164 -14.13731495753948 L-1.1126046697815712 -14.05850129335394 L-1.1126046697815712 -111.56916119183111 z"/>
<path fill="#000000" stroke="#000000" d="M-4.504844339512092 -106.58468545093936 L-4.504844339512078 -9.074025552462214 L-3.665259359149109 -8.20263757245515 L-3.665259359149118 -105.71329747093229 z"/>
<path fill="#000000" stroke="#000000" d="M-3.4207873759010377 -116.62731565090678 L-3.4207873759010377 -19.11665575242961 L-1.1533544932912776 -19.416582752254286 L-1.1533544932912776 -116.92724265073144 z"/>
<path fill="#000000" stroke="#000000" d="M-1.1126046697815712 -111.56916119183109 L-1.1126046697815712 -14.058501293353988 L-2.4999999999999987 -13.673196479379484 L-2.4999999999999987 -111.18385637785659 z"/>
<path fill="#000000" stroke="#000000" d="M-10.627714196620163 -103.46341094510761 L-10.627714196620161 -5.952751046630466 L-11.65590286755444 -7.413890338420706 L-11.655902867554431 -104.92455023689786 z"/>
<path fill="#000000" stroke="#000000" d="M-5.571729447206731 -116.03767530551366 L-5.571729447206731 -18.527015407036544 L-3.4207873759010377 -19.116655752429644 L-3.4207873759010377 -116.62731565090677 z"/>
<path fill="#000000" stroke="#000000" d="M-4.944154131125643 -108.64711908388216 L-4.944154131125643 -11.136459185405014 L-4.944154131125643 -10.081814926270054 L-4.944154131125643 -107.5924748247472 z"/>
<path fill="#000000" stroke="#000000" d="M-7.532932954740707 -115.17840110931886 L-7.532932954740707 -17.6677412108417 L-5.571729447206731 -18.52701540703652 L-5.571729447206731 -116.03767530551367 z"/>
<path fill="#000000" stroke="#000000" d="M-2.5000000000000324 -111.18385637785659 L-2.500000000000039 -13.673196479379422 L-3.665259359149142 -13.015636539219916 L-3.665259359149135 -110.52629643769707 z"/>
<path fill="#000000" stroke="#000000" d="M-12.500000000000002 -108.11979695431467 L-12.500000000000002 -10.60913705583753 L-12.287163746048776 -12.234434186778513 L-12.287163746048776 -109.74509408525564 z"/>
<path fill="#000000" stroke="#000000" d="M-9.237611465258269 -114.0787546144879 L-9.237611465258288 -16.568094716010762 L-7.532932954740729 -17.667741210841676 L-7.532932954740727 -115.17840110931883 z"/>
<path fill="#000000" stroke="#000000" d="M-4.504844339512107 -109.65490845768998 L-4.5048443395121085 -12.144248559212853 L-4.944154131125655 -11.136459185405014 L-4.944154131125652 -108.64711908388216 z"/>
<path fill="#000000" stroke="#000000" d="M3.4207873759010328 -116.62731565090675 L5.571729447206725 -116.03767530551364 L7.532932954740704 -115.17840110931883 L9.237611465258237 -114.0787546144879 L10.627714196620175 -112.77618296352175 L11.655902867554447 -111.3150436717315 L12.287163746048773 -109.74509408525566 L12.5 -108.11979695431468 L12.287163746048774 -106.4944998233737 L11.655902867554452 -104.92455023689787 L10.62771419662018 -103.46341094510761 L9.23761146525824 -102.16083929414145 L7.532932954740708 -101.06119279931052 L5.5717294472067325 -100.20191860311571 L3.4207873759010408 -99.61227825772262 L1.1533544932912758 -99.31235125789793 L-1.1533544932912676 -99.31235125789793 L-3.420787375901028 -99.61227825772261 L-5.5717294472067245 -100.20191860311571 L-7.532932954740701 -101.06119279931052 L-9.237611465258235 -102.16083929414145 L-10.627714196620174 -103.46341094510761 L-11.655902867554445 -104.92455023689786 L-12.28716374604877 -106.4944998233737 L-12.5 -108.11979695431467 L-12.287163746048774 -109.74509408525566 L-11.655902867554449 -111.3150436717315 L-10.62771419662018 -112.77618296352175 L-9.237611465258242 -114.0787546144879 L-7.532932954740708 -115.17840110931883 L-5.571729447206732 -116.03767530551364 L-3.420787375901038 -116.62731565090675 L-1.1533544932912778 -116.92724265073142 L1.1533544932912718 -116.92724265073142 M1.8267051218319754 -111.41329443048224 L0.3736504679321217 -111.64797485601662 L-1.1126046697815715 -111.56916119183109 L-2.499999999999999 -111.18385637785657 L-3.665259359149131 -110.52629643769706 L-4.504844339512095 -109.65490845769 L-4.944154131125643 -108.64711908388216 L-4.944154131125643 -107.5924748247472 L-4.504844339512096 -106.58468545093936 L-3.6652593591491325 -105.71329747093229 L-2.5000000000000018 -105.05573753077277 L-1.1126046697815748 -104.67043271679829 L0.37365046793211987 -104.59161905261274 L1.8267051218319752 -104.82629947814712 L3.117449009293669 -105.3536216077146 L4.131193871579974 -106.12673055598806 L4.777864028930706 -107.07693220018068 L5 -108.11979695431468 L4.777864028930703 -109.1626617084487 L4.131193871579974 -110.1128633526413 L3.1174490092936673 -110.88597230091476 z"/>
<path fill="#000000" stroke="#000000" d="M5.571729447206725 -18.527015407036497 L3.4207873759010328 -19.1166557524296 L1.1533544932912718 -19.41658275225427 L-1.1533544932912778 -19.41658275225427 L-3.420787375901038 -19.116655752429597 L-5.571729447206732 -18.527015407036497 L-7.532932954740708 -17.66774121084168 L-9.237611465258242 -16.56809471601076 L-10.62771419662018 -15.265523065044599 L-11.655902867554449 -13.804383773254353 L-12.287163746048774 -12.234434186778513 L-12.5 -10.60913705583753 L-12.28716374604877 -8.983839924896547 L-11.655902867554445 -7.413890338420709 L-10.627714196620174 -5.952751046630461 L-9.237611465258235 -4.650179395664303 L-7.532932954740701 -3.5505329008333835 L-5.5717294472067245 -2.691258704638569 L-3.420787375901028 -2.1016183592454656 L-1.1533544932912676 -1.8016913594207955 L1.1533544932912758 -1.8016913594207955 L3.4207873759010408 -2.1016183592454696 L5.5717294472067325 -2.6912587046385705 L7.532932954740708 -3.5505329008333875 L9.23761146525824 -4.650179395664307 L10.62771419662018 -5.9527510466304685 L11.655902867554452 -7.413890338420719 L12.287163746048774 -8.983839924896552 L12.5 -10.609137055837534 L12.287163746048773 -12.234434186778518 L11.655902867554447 -13.804383773254356 L10.627714196620175 -15.265523065044603 L9.237611465258237 -16.568094716010762 L7.532932954740704 -17.667741210841683 M1.8267051218319754 -13.902634532005099 L3.1174490092936673 -13.375312402437618 L4.131193871579974 -12.602203454164156 L4.777864028930703 -11.652001809971544 L5 -10.609137055837534 L4.777864028930706 -9.566272301703526 L4.131193871579974 -8.616070657510912 L3.117449009293669 -7.84296170923745 L1.8267051218319752 -7.315639579669969 L0.37365046793211987 -7.080959154135592 L-1.1126046697815748 -7.159772818321134 L-2.5000000000000018 -7.545077632295637 L-3.6652593591491325 -8.202637572455144 L-4.504844339512096 -9.074025552462214 L-4.944154131125643 -10.081814926270054 L-4.944154131125643 -11.136459185405013 L-4.504844339512095 -12.144248559212853 L-3.665259359149131 -13.015636539219923 L-2.499999999999999 -13.673196479379431 L-1.1126046697815715 -14.058501293353935 L0.3736504679321217 -14.137314957539475 z"/>
<path fill="#000000" stroke="#000000" d="M3.4207873759010323 -77.7237623514144 L3.4207873759010323 9.187912775489167 L5.5717294472067245 9.777553120882269 L5.5717294472067245 -77.13412200602129 z"/>
<path fill="#000000" stroke="#000000" d="M1.8267051218319752 -72.50974113098988 L1.8267051218319752 14.401933995913678 L0.37365046793212164 14.167253570379302 L0.37365046793212164 -72.74442155652426 z"/>
<path fill="#000000" stroke="#000000" d="M5.5717294472067245 -77.13412200602127 L5.5717294472067245 9.777553120882274 L7.532932954740703 10.63682731707709 L7.532932954740703 -76.27484780982645 z"/>
<path fill="#000000" stroke="#000000" d="M4.131193871579991 -71.20931005314893 L4.131193871579996 15.702365073754615 L3.117449009293681 14.929256125481169 L3.117449009293676 -71.98241900142237 z"/>
<path fill="#000000" stroke="#000000" d="M4.7778640289307095 -70.25910840895631 L4.777864028930708 16.652566717947234 L4.131193871579986 15.70236507375462 L4.131193871579984 -71.20931005314891 z"/>
<path fill="#000000" stroke="#000000" d="M11.655902867554449 -72.41149037223911 L11.655902867554454 14.50018475466442 L12.287163746048778 16.070134341140257 L12.287163746048778 -70.84154078576329 z"/>
<path fill="#000000" stroke="#000000" d="M5 -69.21624365482229 L5.0000000000000036 17.695431472081243 L4.777864028930703 16.652566717947234 L4.777864028930705 -70.25910840895631 z"/>
<path fill="#000000" stroke="#000000" d="M12.499999999999996 -69.21624365482229 L12.499999999999998 17.695431472081243 L12.287163746048773 19.32072860302222 L12.287163746048773 -67.59094652388131 z"/>
<path fill="#000000" stroke="#000000" d="M11.655902867554444 -66.02099693740547 L11.655902867554431 20.890678189498054 L10.62771419662017 22.351817481288307 L10.627714196620174 -64.55985764561522 z"/>
<path fill="#000000" stroke="#000000" d="M12.287163746048767 -67.59094652388131 L12.287163746048767 19.320728603022225 L11.655902867554447 20.890678189498058 L11.655902867554447 -66.02099693740549 z"/>
<path fill="#000000" stroke="#000000" d="M4.131193871579967 -67.22317725649566 L4.131193871579971 19.68849787040787 L4.777864028930697 18.73829622621525 L4.777864028930702 -68.17337890068829 z"/>
<path fill="#000000" stroke="#000000" d="M7.532932954740706 -62.157639499818195 L7.532932954740706 24.75403562708539 L5.571729447206732 25.613309823280208 L5.571729447206732 -61.29836530362338 z"/>
<path fill="#000000" stroke="#000000" d="M9.237611465258226 -63.25728599464907 L9.237611465258215 23.65438913225447 L7.532932954740685 24.754035627085383 L7.532932954740687 -62.157639499818146 z"/>
<path fill="#000000" stroke="#000000" d="M0.3736504679321198 -65.68806575312037 L0.3736504679321198 21.223609373783155 L1.826705121831975 20.988928948248777 L1.826705121831975 -65.92274617865473 z"/>
<path fill="#000000" stroke="#000000" d="M5.571729447206732 -61.29836530362334 L5.571729447206732 25.61330982328018 L3.4207873759010403 26.202950168673283 L3.4207873759010403 -60.70872495823024 z"/>
<path fill="#000000" stroke="#000000" d="M1.1533544932912758 -60.408797958405586 L1.1533544932912758 26.502877168497943 L-1.1533544932912676 26.502877168497943 L-1.1533544932912676 -60.408797958405586 z"/>
<path fill="#000000" stroke="#000000" d="M-1.1533544932912674 -60.40879795840559 L-1.1533544932912674 26.502877168497967 L-3.4207873759010274 26.202950168673297 L-3.4207873759010274 -60.70872495823026 z"/>
<path fill="#000000" stroke="#000000" d="M-3.6652593591491094 -66.8097441714399 L-3.6652593591491245 20.10193095546364 L-2.4999999999999827 20.75949089562314 L-2.4999999999999676 -66.1521842312804 z"/>
<path fill="#000000" stroke="#000000" d="M-9.23761146525822 -63.25728599464907 L-9.237611465258217 23.654389132254472 L-10.627714196620158 22.35181748128831 L-10.627714196620156 -64.55985764561522 z"/>
<path fill="#000000" stroke="#000000" d="M-7.532932954740683 -62.15763949981813 L-7.532932954740685 24.754035627085397 L-9.237611465258224 23.654389132254476 L-9.23761146525821 -63.25728599464906 z"/>
<path fill="#000000" stroke="#000000" d="M-4.94415413112564 -68.68892152525481 L-4.94415413112564 18.222753601648723 L-4.50484433951209 19.23054297545656 L-4.50484433951209 -67.68113215144697 z"/>
<path fill="#000000" stroke="#000000" d="M-12.287163746048769 -67.5909465238813 L-12.287163746048769 19.320728603022232 L-12.499999999999998 17.695431472081246 L-12.499999999999996 -69.21624365482229 z"/>
<path fill="#000000" stroke="#000000" d="M-11.655902867554442 -66.02099693740547 L-11.655902867554444 20.890678189498068 L-12.287163746048767 19.320728603022232 L-12.287163746048765 -67.59094652388131 z"/>
<path fill="#000000" stroke="#000000" d="M-12.287163746048776 -70.84154078576327 L-12.287163746048781 16.070134341140264 L-11.655902867554458 14.500184754664424 L-11.655902867554452 -72.41149037223911 z"/>
<path fill="#000000" stroke="#000000" d="M-3.6652593591491365 -71.62274313820468 L-3.6652593591491347 15.288931988698856 L-4.504844339512102 16.160319968705924 L-4.504844339512104 -70.75135515819761 z"/>
<path fill="#000000" stroke="#000000" d="M-11.655902867554452 -72.41149037223911 L-11.655902867554467 14.50018475466442 L-10.62771419662019 13.039045462874178 L-10.627714196620188 -73.87262966402936 z"/>
<path fill="#000000" stroke="#000000" d="M-10.627714196620191 -73.87262966402935 L-10.6277141966202 13.039045462874178 L-9.23761146525826 11.736473811908011 L-9.237611465258254 -75.1752013149955 z"/>
<path fill="#000000" stroke="#000000" d="M1.1533544932912716 -78.02368935123906 L1.1533544932912716 8.88798577566448 L3.420787375901032 9.187912775489153 L3.420787375901032 -77.72376235141438 z"/>
<path fill="#000000" stroke="#000000" d="M-1.1533544932912778 -78.02368935123908 L-1.1533544932912778 8.8879857756645 L1.1533544932912718 8.8879857756645 L1.1533544932912718 -78.02368935123908 z"/>
<path fill="#000000" stroke="#000000" d="M-3.4207873759010274 -60.70872495823026 L-3.4207873759010274 26.202950168673294 L-5.571729447206724 25.61330982328019 L-5.571729447206724 -61.29836530362337 z"/>
<path fill="#000000" stroke="#000000" d="M-2.5000000000000013 -66.15218423128042 L-2.5000000000000013 20.759490895623117 L-1.1126046697815746 21.14479570959762 L-1.1126046697815746 -65.76687941730592 z"/>
<path fill="#000000" stroke="#000000" d="M7.532932954740718 -76.27484780982644 L7.532932954740721 10.636827317077104 L9.23761146525826 11.736473811908027 L9.237611465258258 -75.17520131499552 z"/>
<path fill="#000000" stroke="#000000" d="M-1.1126046697815746 -65.7668794173059 L-1.1126046697815746 21.14479570959763 L0.3736504679321198 21.223609373783173 L0.3736504679321198 -65.68806575312037 z"/>
<path fill="#000000" stroke="#000000" d="M9.237611465258247 -75.17520131499553 L9.237611465258244 11.736473811908025 L10.627714196620177 13.039045462874174 L10.627714196620182 -73.87262966402938 z"/>
<path fill="#000000" stroke="#000000" d="M10.627714196620182 -73.87262966402938 L10.627714196620191 13.03904546287417 L11.655902867554452 14.500184754664422 L11.655902867554452 -72.41149037223913 z"/>
<path fill="#000000" stroke="#000000" d="M12.287163746048774 -70.84154078576327 L12.287163746048773 16.070134341140257 L12.5 17.695431472081243 L12.5 -69.21624365482229 z"/>
<path fill="#000000" stroke="#000000" d="M3.1174490092936535 -66.45006830822223 L3.1174490092936544 20.461606818681336 L4.131193871579956 19.68849787040786 L4.131193871579966 -67.22317725649567 z"/>
<path fill="#000000" stroke="#000000" d="M10.627714196620172 -64.55985764561524 L10.627714196620174 22.35181748128831 L9.237611465258233 23.654389132254472 L9.237611465258231 -63.257285994649074 z"/>
<path fill="#000000" stroke="#000000" d="M4.777864028930703 -68.17337890068829 L4.7778640289307015 18.73829622621525 L5 17.695431472081243 L4.999999999999998 -69.21624365482229 z"/>
<path fill="#000000" stroke="#000000" d="M1.826705121831975 -65.92274617865475 L1.826705121831975 20.98892894824881 L3.1174490092936686 20.46160681868133 L3.1174490092936686 -66.45006830822223 z"/>
<path fill="#000000" stroke="#000000" d="M3.4207873759010403 -60.70872495823027 L3.4207873759010403 26.20295016867329 L1.1533544932912756 26.502877168497964 L1.1533544932912756 -60.4087979584056 z"/>
<path fill="#000000" stroke="#000000" d="M3.1174490092936664 -71.9824190014224 L3.1174490092936664 14.92925612548113 L1.826705121831975 14.401933995913652 L1.826705121831975 -72.50974113098988 z"/>
<path fill="#000000" stroke="#000000" d="M-5.571729447206724 -61.29836530362335 L-5.571729447206724 25.613309823280197 L-7.5329329547407005 24.754035627085383 L-7.5329329547407005 -62.15763949981817 z"/>
<path fill="#000000" stroke="#000000" d="M0.37365046793212164 -72.74442155652427 L0.37365046793212164 14.167253570379268 L-1.1126046697815712 14.246067234564809 L-1.1126046697815712 -72.66560789233873 z"/>
<path fill="#000000" stroke="#000000" d="M-4.504844339512086 -67.68113215144697 L-4.504844339512089 19.230542975456565 L-3.665259359149122 20.101930955463633 L-3.665259359149129 -66.8097441714399 z"/>
<path fill="#000000" stroke="#000000" d="M-3.4207873759010377 -77.72376235141441 L-3.4207873759010377 9.187912775489147 L-1.1533544932912776 8.887985775664475 L-1.1533544932912776 -78.02368935123908 z"/>
<path fill="#000000" stroke="#000000" d="M-1.1126046697815712 -72.66560789233873 L-1.1126046697815712 14.246067234564801 L-2.4999999999999987 14.631372048539305 L-2.4999999999999987 -72.28030307836423 z"/>
<path fill="#000000" stroke="#000000" d="M-10.627714196620168 -64.55985764561522 L-10.627714196620161 22.351817481288315 L-11.655902867554442 20.89067818949807 L-11.655902867554438 -66.02099693740546 z"/>
<path fill="#000000" stroke="#000000" d="M-5.571729447206731 -77.13412200602127 L-5.571729447206731 9.777553120882274 L-3.4207873759010377 9.187912775489172 L-3.4207873759010377 -77.72376235141438 z"/>
<path fill="#000000" stroke="#000000" d="M-4.944154131125643 -69.74356578438979 L-4.944154131125643 17.168109342513763 L-4.944154131125643 18.222753601648723 L-4.944154131125643 -68.68892152525483 z"/>
<path fill="#000000" stroke="#000000" d="M-7.532932954740707 -76.27484780982647 L-7.532932954740707 10.636827317077072 L-5.571729447206731 9.777553120882256 L-5.571729447206731 -77.13412200602129 z"/>
<path fill="#000000" stroke="#000000" d="M-2.5000000000000075 -72.2803030783642 L-2.500000000000011 14.631372048539362 L-3.665259359149154 15.288931988698863 L-3.6652593591491502 -71.6227431382047 z"/>
<path fill="#000000" stroke="#000000" d="M-12.5 -69.21624365482229 L-12.5 17.695431472081246 L-12.287163746048774 16.070134341140264 L-12.287163746048774 -70.84154078576329 z"/>
<path fill="#000000" stroke="#000000" d="M-9.237611465258261 -75.17520131499552 L-9.237611465258269 11.736473811908027 L-7.532932954740728 10.636827317077104 L-7.532932954740721 -76.27484780982644 z"/>
<path fill="#000000" stroke="#000000" d="M-4.5048443395121 -70.75135515819763 L-4.504844339512106 16.16031996870592 L-4.944154131125646 17.168109342513763 L-4.944154131125646 -69.74356578438977 z"/>
<path fill="#000000" stroke="#000000" d="M3.4207873759010328 -77.72376235141436 L5.571729447206725 -77.13412200602126 L7.532932954740704 -76.27484780982644 L9.237611465258237 -75.17520131499553 L10.627714196620175 -73.87262966402936 L11.655902867554447 -72.41149037223911 L12.287163746048773 -70.84154078576329 L12.5 -69.21624365482229 L12.287163746048774 -67.5909465238813 L11.655902867554452 -66.02099693740547 L10.62771419662018 -64.55985764561524 L9.23761146525824 -63.257285994649074 L7.532932954740708 -62.15763949981815 L5.5717294472067325 -61.298365303623335 L3.4207873759010408 -60.70872495823023 L1.1533544932912758 -60.408797958405565 L-1.1533544932912676 -60.408797958405565 L-3.420787375901028 -60.70872495823023 L-5.5717294472067245 -61.29836530362333 L-7.532932954740701 -62.157639499818146 L-9.237611465258235 -63.25728599464907 L-10.627714196620174 -64.55985764561522 L-11.655902867554445 -66.02099693740546 L-12.28716374604877 -67.5909465238813 L-12.5 -69.21624365482229 L-12.287163746048774 -70.84154078576327 L-11.655902867554449 -72.41149037223911 L-10.62771419662018 -73.87262966402936 L-9.237611465258242 -75.17520131499552 L-7.532932954740708 -76.27484780982644 L-5.571729447206732 -77.13412200602126 L-3.420787375901038 -77.72376235141436 L-1.1533544932912778 -78.02368935123903 L1.1533544932912718 -78.02368935123903 M1.8267051218319754 -72.50974113098987 L0.3736504679321217 -72.74442155652423 L-1.1126046697815715 -72.6656078923387 L-2.499999999999999 -72.28030307836418 L-3.665259359149131 -71.62274313820468 L-4.504844339512095 -70.75135515819761 L-4.944154131125643 -69.74356578438977 L-4.944154131125643 -68.68892152525481 L-4.504844339512096 -67.68113215144697 L-3.6652593591491325 -66.8097441714399 L-2.5000000000000018 -66.15218423128039 L-1.1126046697815748 -65.7668794173059 L0.37365046793211987 -65.68806575312034 L1.8267051218319752 -65.92274617865472 L3.117449009293669 -66.4500683082222 L4.131193871579974 -67.22317725649567 L4.777864028930706 -68.17337890068829 L5 -69.21624365482229 L4.777864028930703 -70.25910840895631 L4.131193871579974 -71.20931005314893 L3.1174490092936673 -71.98241900142237 z"/>
<path fill="#000000" stroke="#000000" d="M5.571729447206725 9.77755312088228 L3.4207873759010328 9.187912775489178 L1.1533544932912718 8.887985775664506 L-1.1533544932912778 8.887985775664506 L-3.420787375901038 9.187912775489178 L-5.571729447206732 9.777553120882281 L-7.532932954740708 10.636827317077097 L-9.237611465258242 11.736473811908018 L-10.62771419662018 13.03904546287418 L-11.655902867554449 14.500184754664426 L-12.287163746048774 16.070134341140264 L-12.5 17.695431472081246 L-12.28716374604877 19.32072860302223 L-11.655902867554445 20.890678189498068 L-10.627714196620174 22.351817481288318 L-9.237611465258235 23.654389132254476 L-7.532932954740701 24.754035627085393 L-5.5717294472067245 25.613309823280208 L-3.420787375901028 26.20295016867331 L-1.1533544932912676 26.50287716849798 L1.1533544932912758 26.50287716849798 L3.4207873759010408 26.202950168673308 L5.5717294472067325 25.613309823280208 L7.532932954740708 24.75403562708539 L9.23761146525824 23.654389132254472 L10.62771419662018 22.351817481288307 L11.655902867554452 20.890678189498058 L12.287163746048774 19.320728603022225 L12.5 17.695431472081243 L12.287163746048773 16.07013434114026 L11.655902867554447 14.500184754664422 L10.627714196620175 13.039045462874174 L9.237611465258237 11.736473811908017 L7.532932954740704 10.636827317077096 M1.8267051218319754 14.40193399591368 L3.1174490092936673 14.92925612548116 L4.131193871579974 15.702365073754622 L4.777864028930703 16.65256671794723 L5 17.695431472081243 L4.777864028930706 18.738296226215247 L4.131193871579974 19.688497870407865 L3.117449009293669 20.461606818681325 L1.8267051218319752 20.98892894824881 L0.37365046793211987 21.223609373783184 L-1.1126046697815748 21.144795709597645 L-2.5000000000000018 20.759490895623138 L-3.6652593591491325 20.101930955463633 L-4.504844339512096 19.23054297545656 L-4.944154131125643 18.222753601648723 L-4.944154131125643 17.168109342513763 L-4.504844339512095 16.16031996870592 L-3.665259359149131 15.288931988698854 L-2.499999999999999 14.631372048539347 L-1.1126046697815715 14.246067234564844 L0.3736504679321217 14.167253570379302 z"/>
<path fill="#000000" stroke="#000000" d="M3.4207873759010323 -115.96132580319106 L3.4207873759010323 -47.42122428034841 L5.5717294472067245 -46.831583934955304 L5.5717294472067245 -115.37168545779795 z"/>
<path fill="#000000" stroke="#000000" d="M1.8267051218319752 -110.74730458276653 L1.8267051218319752 -42.20720305992392 L0.37365046793212164 -42.4418834854583 L0.37365046793212164 -110.9819850083009 z"/>
<path fill="#000000" stroke="#000000" d="M5.5717294472067245 -115.37168545779791 L5.5717294472067245 -46.831583934955304 L7.532932954740703 -45.97230973876049 L7.532932954740703 -114.5124112616031 z"/>
<path fill="#000000" stroke="#000000" d="M4.1311938715800025 -109.44687350492558 L4.131193871579998 -40.90677198208293 L3.1174490092936855 -41.679880930356404 L3.1174490092936793 -110.21998245319902 z"/>
<path fill="#000000" stroke="#000000" d="M4.777864028930709 -108.49667186073295 L4.777864028930717 -39.95657033789032 L4.13119387157999 -40.90677198208293 L4.131193871579978 -109.44687350492558 z"/>
<path fill="#000000" stroke="#000000" d="M11.65590286755445 -110.64905382401575 L11.655902867554454 -42.10895230117313 L12.287163746048773 -40.53900271469729 L12.287163746048774 -109.07910423753992 z"/>
<path fill="#000000" stroke="#000000" d="M5.000000000000002 -107.45380710659893 L5.000000000000006 -38.91370558375631 L4.777864028930707 -39.95657033789032 L4.777864028930707 -108.49667186073295 z"/>
<path fill="#000000" stroke="#000000" d="M12.499999999999996 -107.45380710659894 L12.499999999999996 -38.91370558375631 L12.28716374604877 -37.28840845281533 L12.28716374604877 -105.82850997565797 z"/>
<path fill="#000000" stroke="#000000" d="M11.655902867554444 -104.25856038918214 L11.655902867554449 -35.71845886633949 L10.627714196620168 -34.25731957454924 L10.627714196620174 -102.79742109739188 z"/>
<path fill="#000000" stroke="#000000" d="M12.287163746048769 -105.82850997565797 L12.287163746048765 -37.28840845281533 L11.65590286755445 -35.71845886633949 L11.655902867554444 -104.25856038918211 z"/>
<path fill="#000000" stroke="#000000" d="M4.131193871579964 -105.46074070827233 L4.131193871579954 -36.920639185429685 L4.777864028930685 -37.870840829622296 L4.77786402893069 -106.41094235246493 z"/>
<path fill="#000000" stroke="#000000" d="M7.532932954740707 -100.39520295159485 L7.532932954740707 -31.855101428752196 L5.571729447206732 -30.995827232557378 L5.571729447206732 -99.53592875540004 z"/>
<path fill="#000000" stroke="#000000" d="M9.237611465258214 -101.49484944642569 L9.237611465258231 -32.954747923583085 L7.532932954740685 -31.855101428752178 L7.532932954740668 -100.39520295159478 z"/>
<path fill="#000000" stroke="#000000" d="M0.3736504679321198 -103.92562920489705 L0.3736504679321198 -35.38552768205441 L1.826705121831975 -35.62020810758879 L1.826705121831975 -104.16030963043143 z"/>
<path fill="#000000" stroke="#000000" d="M5.571729447206732 -99.53592875539998 L5.571729447206732 -30.995827232557403 L3.4207873759010403 -30.4061868871643 L3.4207873759010403 -98.94628841000689 z"/>
<path fill="#000000" stroke="#000000" d="M1.1533544932912758 -98.64636141018224 L1.1533544932912758 -30.10625988733958 L-1.1533544932912676 -30.10625988733958 L-1.1533544932912676 -98.64636141018224 z"/>
<path fill="#000000" stroke="#000000" d="M-1.1533544932912674 -98.64636141018224 L-1.1533544932912674 -30.10625988733959 L-3.4207873759010274 -30.40618688716426 L-3.4207873759010274 -98.9462884100069 z"/>
<path fill="#000000" stroke="#000000" d="M-3.665259359149104 -105.04730762321654 L-3.665259359149075 -36.5072061003739 L-2.499999999999984 -35.84964616021441 L-2.499999999999952 -104.38974768305702 z"/>
<path fill="#000000" stroke="#000000" d="M-9.237611465258222 -101.4948494464257 L-9.237611465258212 -32.95474792358308 L-10.627714196620166 -34.257319574549236 L-10.627714196620163 -102.79742109739188 z"/>
<path fill="#000000" stroke="#000000" d="M-7.532932954740659 -100.39520295159478 L-7.532932954740676 -31.855101428752153 L-9.237611465258192 -32.954747923583085 L-9.237611465258205 -101.49484944642569 z"/>
<path fill="#000000" stroke="#000000" d="M-4.944154131125638 -106.92648497703146 L-4.944154131125628 -38.38638345418883 L-4.504844339512093 -37.37859408038099 L-4.504844339512092 -105.91869560322361 z"/>
<path fill="#000000" stroke="#000000" d="M-12.287163746048767 -105.82850997565797 L-12.287163746048767 -37.288408452815325 L-12.499999999999996 -38.91370558375631 L-12.499999999999996 -107.45380710659894 z"/>
<path fill="#000000" stroke="#000000" d="M-11.655902867554438 -104.25856038918212 L-11.655902867554442 -35.71845886633949 L-12.287163746048767 -37.288408452815325 L-12.287163746048765 -105.82850997565795 z"/>
<path fill="#000000" stroke="#000000" d="M-12.287163746048781 -109.07910423753992 L-12.287163746048781 -40.53900271469728 L-11.655902867554454 -42.108952301173126 L-11.655902867554456 -110.64905382401575 z"/>
<path fill="#000000" stroke="#000000" d="M-3.6652593591491547 -109.86030658998133 L-3.6652593591491356 -41.3202050671387 L-4.504844339512104 -40.44881708713163 L-4.5048443395121165 -108.98891860997428 z"/>
<path fill="#000000" stroke="#000000" d="M-11.655902867554458 -110.64905382401575 L-11.65590286755447 -42.10895230117313 L-10.627714196620195 -43.57009159296337 L-10.627714196620191 -112.11019311580601 z"/>
<path fill="#000000" stroke="#000000" d="M-10.627714196620182 -112.11019311580601 L-10.62771419662019 -43.57009159296336 L-9.237611465258263 -44.87266324392954 L-9.237611465258263 -113.41276476677214 z"/>
<path fill="#000000" stroke="#000000" d="M1.1533544932912716 -116.26125280301572 L1.1533544932912716 -47.72115128017305 L3.4207873759010323 -47.42122428034838 L3.4207873759010323 -115.96132580319104 z"/>
<path fill="#000000" stroke="#000000" d="M-1.1533544932912778 -116.26125280301572 L-1.1533544932912778 -47.72115128017306 L1.1533544932912718 -47.72115128017306 L1.1533544932912718 -116.26125280301572 z"/>
<path fill="#000000" stroke="#000000" d="M-3.4207873759010274 -98.94628841000689 L-3.4207873759010274 -30.406186887164285 L-5.571729447206724 -30.99582723255739 L-5.571729447206724 -99.5359287554 z"/>
<path fill="#000000" stroke="#000000" d="M-2.5000000000000013 -104.38974768305708 L-2.5000000000000013 -35.84964616021445 L-1.1126046697815746 -35.46434134623995 L-1.1126046697815746 -104.00444286908258 z"/>
<path fill="#000000" stroke="#000000" d="M7.532932954740744 -114.51241126160308 L7.532932954740719 -45.97230973876045 L9.237611465258265 -44.87266324392954 L9.237611465258265 -113.4127647667722 z"/>
<path fill="#000000" stroke="#000000" d="M-1.1126046697815746 -104.00444286908258 L-1.1126046697815746 -35.464341346239955 L0.3736504679321198 -35.385527682054416 L0.3736504679321198 -103.92562920489705 z"/>
<path fill="#000000" stroke="#000000" d="M9.237611465258249 -113.41276476677218 L9.237611465258269 -44.87266324392955 L10.627714196620193 -43.57009159296337 L10.62771419662019 -112.11019311580601 z"/>
<path fill="#000000" stroke="#000000" d="M10.627714196620191 -112.110193115806 L10.627714196620195 -43.57009159296339 L11.655902867554449 -42.10895230117313 L11.655902867554454 -110.64905382401577 z"/>
<path fill="#000000" stroke="#000000" d="M12.287163746048774 -109.07910423753994 L12.287163746048774 -40.5390027146973 L12.500000000000002 -38.91370558375631 L12.500000000000002 -107.45380710659894 z"/>
<path fill="#000000" stroke="#000000" d="M3.1174490092936327 -104.68763175999885 L3.1174490092936447 -36.14753023715623 L4.1311938715799394 -36.920639185429685 L4.131193871579943 -105.46074070827233 z"/>
<path fill="#000000" stroke="#000000" d="M10.627714196620166 -102.79742109739188 L10.627714196620154 -34.25731957454926 L9.237611465258226 -32.95474792358308 L9.237611465258222 -101.4948494464257 z"/>
<path fill="#000000" stroke="#000000" d="M4.7778640289307015 -106.41094235246494 L4.777864028930703 -37.8708408296223 L4.999999999999991 -38.91370558375631 L4.999999999999997 -107.45380710659894 z"/>
<path fill="#000000" stroke="#000000" d="M1.826705121831975 -104.1603096304314 L1.826705121831975 -35.620208107588766 L3.1174490092936686 -36.147530237156246 L3.1174490092936686 -104.68763175999888 z"/>
<path fill="#000000" stroke="#000000" d="M3.42078737590104 -98.94628841000691 L3.42078737590104 -30.4061868871643 L1.1533544932912756 -30.106259887339625 L1.1533544932912756 -98.64636141018224 z"/>
<path fill="#000000" stroke="#000000" d="M3.117449009293667 -110.21998245319907 L3.117449009293667 -41.679880930356425 L1.8267051218319752 -42.207203059923906 L1.8267051218319752 -110.74730458276655 z"/>
<path fill="#000000" stroke="#000000" d="M-5.571729447206724 -99.53592875540004 L-5.571729447206724 -30.99582723255737 L-7.5329329547407005 -31.855101428752185 L-7.5329329547407005 -100.39520295159485 z"/>
<path fill="#000000" stroke="#000000" d="M0.3736504679321216 -110.9819850083009 L0.3736504679321216 -42.4418834854583 L-1.1126046697815712 -42.36306982127275 L-1.1126046697815712 -110.90317134411536 z"/>
<path fill="#000000" stroke="#000000" d="M-4.504844339512075 -105.91869560322361 L-4.504844339512077 -37.378594080381 L-3.66525935914911 -36.507206100373935 L-3.6652593591491134 -105.04730762321655 z"/>
<path fill="#000000" stroke="#000000" d="M-3.4207873759010377 -115.96132580319103 L-3.4207873759010377 -47.421224280348426 L-1.1533544932912776 -47.721151280173096 L-1.1533544932912776 -116.26125280301571 z"/>
<path fill="#000000" stroke="#000000" d="M-1.1126046697815712 -110.90317134411538 L-1.1126046697815712 -42.36306982127272 L-2.4999999999999982 -41.97776500729822 L-2.4999999999999982 -110.51786653014088 z"/>
<path fill="#000000" stroke="#000000" d="M-10.627714196620166 -102.79742109739186 L-10.627714196620154 -34.25731957454924 L-11.655902867554433 -35.71845886633948 L-11.655902867554436 -104.25856038918212 z"/>
<path fill="#000000" stroke="#000000" d="M-5.57172944720673 -115.37168545779795 L-5.57172944720673 -46.83158393495528 L-3.4207873759010377 -47.42122428034838 L-3.4207873759010377 -115.96132580319106 z"/>
<path fill="#000000" stroke="#000000" d="M-4.944154131125643 -107.98112923616642 L-4.944154131125643 -39.44102771332379 L-4.944154131125643 -38.38638345418883 L-4.944154131125643 -106.92648497703146 z"/>
<path fill="#000000" stroke="#000000" d="M-7.532932954740707 -114.51241126160309 L-7.532932954740707 -45.972309738760465 L-5.571729447206731 -46.831583934955276 L-5.571729447206731 -115.37168545779791 z"/>
<path fill="#000000" stroke="#000000" d="M-2.5000000000000413 -110.51786653014084 L-2.500000000000042 -41.97776500729819 L-3.6652593591491347 -41.3202050671387 L-3.6652593591491693 -109.8603065899813 z"/>
<path fill="#000000" stroke="#000000" d="M-12.5 -107.45380710659894 L-12.5 -38.91370558375631 L-12.287163746048774 -40.53900271469729 L-12.287163746048776 -109.07910423753992 z"/>
<path fill="#000000" stroke="#000000" d="M-9.237611465258254 -113.41276476677217 L-9.23761146525829 -44.87266324392954 L-7.532932954740742 -45.97230973876045 L-7.532932954740736 -114.5124112616031 z"/>
<path fill="#000000" stroke="#000000" d="M-4.504844339512103 -108.98891860997425 L-4.504844339512098 -40.44881708713163 L-4.944154131125648 -39.4410277133238 L-4.9441541311256465 -107.98112923616642 z"/>
<path fill="#000000" stroke="#000000" d="M3.4207873759010328 -115.96132580319102 L5.571729447206725 -115.37168545779791 L7.532932954740704 -114.51241126160309 L9.237611465258237 -113.41276476677217 L10.627714196620175 -112.11019311580601 L11.655902867554447 -110.64905382401577 L12.287163746048773 -109.07910423753994 L12.5 -107.45380710659894 L12.287163746048774 -105.82850997565795 L11.655902867554452 -104.25856038918212 L10.62771419662018 -102.79742109739188 L9.23761146525824 -101.49484944642572 L7.532932954740708 -100.3952029515948 L5.5717294472067325 -99.53592875539998 L3.4207873759010408 -98.94628841000687 L1.1533544932912758 -98.64636141018221 L-1.1533544932912676 -98.64636141018221 L-3.420787375901028 -98.94628841000687 L-5.5717294472067245 -99.53592875539996 L-7.532932954740701 -100.39520295159478 L-9.237611465258235 -101.49484944642572 L-10.627714196620174 -102.79742109739186 L-11.655902867554445 -104.25856038918211 L-12.28716374604877 -105.82850997565795 L-12.5 -107.45380710659894 L-12.287163746048774 -109.07910423753992 L-11.655902867554449 -110.64905382401577 L-10.62771419662018 -112.11019311580601 L-9.237611465258242 -113.41276476677216 L-7.532932954740708 -114.51241126160309 L-5.571729447206732 -115.37168545779791 L-3.420787375901038 -115.96132580319102 L-1.1533544932912778 -116.26125280301568 L1.1533544932912718 -116.26125280301568 M1.8267051218319754 -110.7473045827665 L0.3736504679321217 -110.98198500830088 L-1.1126046697815715 -110.90317134411535 L-2.499999999999999 -110.51786653014084 L-3.665259359149131 -109.86030658998133 L-4.504844339512095 -108.98891860997426 L-4.944154131125643 -107.98112923616642 L-4.944154131125643 -106.92648497703146 L-4.504844339512096 -105.91869560322363 L-3.6652593591491325 -105.04730762321655 L-2.5000000000000018 -104.38974768305704 L-1.1126046697815748 -104.00444286908254 L0.37365046793211987 -103.92562920489699 L1.8267051218319752 -104.16030963043137 L3.117449009293669 -104.68763175999885 L4.131193871579974 -105.46074070827233 L4.777864028930706 -106.41094235246494 L5 -107.45380710659894 L4.777864028930703 -108.49667186073296 L4.131193871579974 -109.44687350492558 L3.1174490092936673 -110.21998245319902 z"/>
<path fill="#000000" stroke="#000000" d="M5.571729447206725 -46.831583934955276 L3.4207873759010328 -47.421224280348376 L1.1533544932912718 -47.721151280173046 L-1.1533544932912778 -47.721151280173046 L-3.420787375901038 -47.421224280348376 L-5.571729447206732 -46.83158393495527 L-7.532932954740708 -45.97230973876046 L-9.237611465258242 -44.87266324392954 L-10.62771419662018 -43.57009159296337 L-11.655902867554449 -42.10895230117313 L-12.287163746048774 -40.53900271469729 L-12.5 -38.913705583756304 L-12.28716374604877 -37.288408452815325 L-11.655902867554445 -35.71845886633948 L-10.627714196620174 -34.257319574549236 L-9.237611465258235 -32.95474792358308 L-7.532932954740701 -31.85510142875216 L-5.5717294472067245 -30.99582723255735 L-3.420787375901028 -30.406186887164246 L-1.1533544932912676 -30.106259887339572 L1.1533544932912758 -30.106259887339572 L3.4207873759010408 -30.40618688716425 L5.5717294472067325 -30.99582723255735 L7.532932954740708 -31.855101428752167 L9.23761146525824 -32.95474792358308 L10.62771419662018 -34.25731957454924 L11.655902867554452 -35.71845886633949 L12.287163746048774 -37.28840845281533 L12.5 -38.91370558375631 L12.287163746048773 -40.53900271469729 L11.655902867554447 -42.10895230117313 L10.627714196620175 -43.57009159296338 L9.237611465258237 -44.87266324392954 L7.532932954740704 -45.97230973876046 M1.8267051218319754 -42.20720305992388 L3.1174490092936673 -41.6798809303564 L4.131193871579974 -40.90677198208293 L4.777864028930703 -39.95657033789032 L5 -38.91370558375631 L4.777864028930706 -37.8708408296223 L4.131193871579974 -36.920639185429685 L3.117449009293669 -36.147530237156225 L1.8267051218319752 -35.62020810758874 L0.37365046793211987 -35.385527682054374 L-1.1126046697815748 -35.46434134623991 L-2.5000000000000018 -35.84964616021441 L-3.6652593591491325 -36.50720610037392 L-4.504844339512096 -37.37859408038099 L-4.944154131125643 -38.38638345418883 L-4.944154131125643 -39.44102771332379 L-4.504844339512095 -40.44881708713163 L-3.665259359149131 -41.3202050671387 L-2.499999999999999 -41.97776500729821 L-1.1126046697815715 -42.36306982127271 L0.3736504679321217 -42.44188348545825 z"/>
</svg>