<?xml version="1.0" encoding="UTF-8"?>
<!-- Generated by jsxcad -->
<!DOCTYPE svg PUBLIC "-//W3C//DTD SVG 1.1 Tiny//EN" "http://www.w3.org/Graphics/SVG/1.1/DTD/svg11-tiny.dtd">
<svg baseProfile="tiny" height="45.87885078369646mm" width="25.000000000000014mm" viewBox="-12.500000000000007 -22.140779029750096 25.000000000000014 45.87885078369646" version="1.1" stroke="black" stroke-width=".1" fill="none" xmlns="http://www.w3.org/2000/svg">
<path fill="#000000" stroke="#000000" d="M3.4207873759010323 -23.438144754121666 L3.4207873759010323 4.825814636741267 L5.5717294472067245 5.415454982134369 L5.5717294472067245 -22.848504408728562 z"/>
<path fill="#000000" stroke="#000000" d="M1.8267051218319752 -18.22412353369717 L1.8267051218319752 10.039835857165766 L0.37365046793212164 9.805155431631391 L0.37365046793212164 -18.45880395923155 z"/>
<path fill="#000000" stroke="#000000" d="M5.5717294472067245 -22.848504408728566 L5.5717294472067245 5.415454982134377 L7.532932954740703 6.274729178329193 L7.532932954740703 -21.98923021253375 z"/>
<path fill="#000000" stroke="#000000" d="M4.131193871579978 -16.923692455856216 L4.131193871579979 11.34026693500672 L3.1174490092936704 10.567157986733257 L3.117449009293673 -17.696801404129683 z"/>
<path fill="#000000" stroke="#000000" d="M4.777864028930706 -15.973490811663611 L4.777864028930706 12.290468579199331 L4.131193871579977 11.34026693500672 L4.131193871579977 -16.92369245585622 z"/>
<path fill="#000000" stroke="#000000" d="M11.655902867554447 -18.12587277494642 L11.655902867554449 10.13808661591652 L12.287163746048773 11.708036202392357 L12.287163746048773 -16.555923188470583 z"/>
<path fill="#000000" stroke="#000000" d="M5 -14.930626057529595 L5 13.333333333333343 L4.777864028930704 12.290468579199331 L4.777864028930703 -15.97349081166361 z"/>
<path fill="#000000" stroke="#000000" d="M12.499999999999998 -14.930626057529599 L12.499999999999998 13.333333333333341 L12.287163746048773 14.958630464274322 L12.287163746048773 -13.305328926588617 z"/>
<path fill="#000000" stroke="#000000" d="M11.65590286755445 -11.735379340112782 L11.655902867554449 16.528580050750154 L10.627714196620177 17.989719342540408 L10.627714196620179 -10.274240048322534 z"/>
<path fill="#000000" stroke="#000000" d="M12.287163746048773 -13.305328926588619 L12.28716374604877 14.958630464274323 L11.65590286755445 16.528580050750158 L11.65590286755445 -11.735379340112782 z"/>
<path fill="#000000" stroke="#000000" d="M4.131193871579971 -12.937559659202975 L4.1311938715799705 15.326399731659965 L4.777864028930704 14.37619808746735 L4.7778640289307015 -13.88776130339559 z"/>
<path fill="#000000" stroke="#000000" d="M7.532932954740707 -7.872021902525455 L7.532932954740707 20.391937488337486 L5.571729447206732 21.251211684532304 L5.571729447206732 -7.0127477063306385 z"/>
<path fill="#000000" stroke="#000000" d="M9.237611465258235 -8.97166839735637 L9.237611465258238 19.29229099350657 L7.532932954740707 20.39193748833749 L7.532932954740706 -7.872021902525451 z"/>
<path fill="#000000" stroke="#000000" d="M0.3736504679321198 -11.402448155827656 L0.3736504679321198 16.861511235035277 L1.826705121831975 16.6268308095009 L1.826705121831975 -11.637128581362033 z"/>
<path fill="#000000" stroke="#000000" d="M5.571729447206732 -7.01274770633064 L5.571729447206732 21.2512116845323 L3.4207873759010403 21.8408520299254 L3.4207873759010403 -6.423107360937539 z"/>
<path fill="#000000" stroke="#000000" d="M1.1533544932912758 -6.123180361112863 L1.1533544932912758 22.140779029750078 L-1.1533544932912676 22.140779029750078 L-1.1533544932912676 -6.123180361112863 z"/>
<path fill="#000000" stroke="#000000" d="M-1.1533544932912674 -6.123180361112862 L-1.1533544932912674 22.140779029750068 L-3.4207873759010274 21.840852029925397 L-3.4207873759010274 -6.423107360937532 z"/>
<path fill="#000000" stroke="#000000" d="M-3.665259359149129 -12.524126574147207 L-3.665259359149124 15.73983281671573 L-2.5000000000000013 16.397392756875238 L-2.499999999999998 -11.866566633987702 z"/>
<path fill="#000000" stroke="#000000" d="M-9.237611465258231 -8.971668397356364 L-9.237611465258233 19.292290993506573 L-10.62771419662017 17.989719342540415 L-10.627714196620168 -10.274240048322524 z"/>
<path fill="#000000" stroke="#000000" d="M-7.5329329547407005 -7.872021902525448 L-7.5329329547407005 20.391937488337494 L-9.237611465258233 19.292290993506576 L-9.237611465258231 -8.971668397356366 z"/>
<path fill="#000000" stroke="#000000" d="M-4.944154131125641 -14.403303927962119 L-4.944154131125642 13.860655462900823 L-4.504844339512094 14.868444836708662 L-4.504844339512094 -13.395514554154277 z"/>
<path fill="#000000" stroke="#000000" d="M-12.287163746048769 -13.305328926588611 L-12.287163746048769 14.958630464274329 L-12.499999999999998 13.333333333333345 L-12.499999999999998 -14.930626057529595 z"/>
<path fill="#000000" stroke="#000000" d="M-11.655902867554444 -11.735379340112772 L-11.655902867554442 16.52858005075017 L-12.287163746048767 14.958630464274329 L-12.287163746048769 -13.305328926588611 z"/>
<path fill="#000000" stroke="#000000" d="M-12.287163746048774 -16.555923188470576 L-12.287163746048774 11.708036202392364 L-11.655902867554449 10.138086615916523 L-11.655902867554449 -18.125872774946416 z"/>
<path fill="#000000" stroke="#000000" d="M-3.665259359149135 -17.337125540911988 L-3.6652593591491316 10.926833849950953 L-4.504844339512097 11.798221829958022 L-4.504844339512096 -16.465737560904916 z"/>
<path fill="#000000" stroke="#000000" d="M-11.65590286755445 -18.125872774946416 L-11.65590286755445 10.138086615916523 L-10.627714196620182 8.676947324126278 L-10.627714196620182 -19.58701206673666 z"/>
<path fill="#000000" stroke="#000000" d="M-10.627714196620182 -19.587012066736662 L-10.62771419662018 8.676947324126278 L-9.237611465258244 7.374375673160118 L-9.237611465258244 -20.889583717702823 z"/>
<path fill="#000000" stroke="#000000" d="M1.1533544932912716 -23.738071753946343 L1.1533544932912716 4.525887636916595 L3.4207873759010323 4.825814636741267 L3.4207873759010323 -23.438144754121673 z"/>
<path fill="#000000" stroke="#000000" d="M-1.1533544932912778 -23.738071753946343 L-1.1533544932912778 4.525887636916604 L1.1533544932912718 4.525887636916604 L1.1533544932912718 -23.738071753946343 z"/>
<path fill="#000000" stroke="#000000" d="M-3.4207873759010274 -6.423107360937532 L-3.4207873759010274 21.840852029925404 L-5.571729447206724 21.2512116845323 L-5.571729447206724 -7.012747706330636 z"/>
<path fill="#000000" stroke="#000000" d="M-2.5000000000000013 -11.866566633987706 L-2.5000000000000013 16.397392756875234 L-1.1126046697815746 16.782697570849738 L-1.1126046697815746 -11.481261820013202 z"/>
<path fill="#000000" stroke="#000000" d="M7.532932954740709 -21.98923021253374 L7.5329329547407085 6.274729178329191 L9.237611465258242 7.374375673160115 L9.237611465258238 -20.889583717702823 z"/>
<path fill="#000000" stroke="#000000" d="M-1.1126046697815746 -11.481261820013206 L-1.1126046697815746 16.78269757084974 L0.3736504679321198 16.861511235035284 L0.3736504679321198 -11.402448155827665 z"/>
<path fill="#000000" stroke="#000000" d="M9.23761146525824 -20.889583717702823 L9.237611465258237 7.374375673160115 L10.627714196620179 8.676947324126273 L10.627714196620177 -19.587012066736666 z"/>
<path fill="#000000" stroke="#000000" d="M10.627714196620175 -19.587012066736666 L10.627714196620177 8.676947324126273 L11.655902867554447 10.13808661591652 L11.655902867554447 -18.12587277494642 z"/>
<path fill="#000000" stroke="#000000" d="M12.287163746048773 -16.55592318847058 L12.287163746048773 11.708036202392357 L12.499999999999998 13.333333333333341 L12.5 -14.930626057529599 z"/>
<path fill="#000000" stroke="#000000" d="M3.1174490092936638 -12.164450710929513 L3.1174490092936655 16.099508679933425 L4.131193871579971 15.326399731659965 L4.13119387157997 -12.937559659202977 z"/>
<path fill="#000000" stroke="#000000" d="M10.627714196620175 -10.27424004832253 L10.627714196620177 17.989719342540408 L9.237611465258238 19.29229099350657 L9.237611465258238 -8.971668397356371 z"/>
<path fill="#000000" stroke="#000000" d="M4.777864028930705 -13.88776130339559 L4.777864028930705 14.37619808746735 L4.999999999999999 13.333333333333343 L4.999999999999999 -14.930626057529597 z"/>
<path fill="#000000" stroke="#000000" d="M1.8267051218319748 -11.637128581362033 L1.8267051218319748 16.626830809500895 L3.1174490092936686 16.099508679933415 L3.1174490092936686 -12.164450710929515 z"/>
<path fill="#000000" stroke="#000000" d="M3.4207873759010403 -6.4231073609375375 L3.4207873759010403 21.8408520299254 L1.1533544932912756 22.140779029750075 L1.1533544932912756 -6.123180361112864 z"/>
<path fill="#000000" stroke="#000000" d="M3.117449009293667 -17.696801404129687 L3.117449009293667 10.567157986733255 L1.8267051218319752 10.039835857165775 L1.8267051218319752 -18.224123533697167 z"/>
<path fill="#000000" stroke="#000000" d="M-5.571729447206724 -7.012747706330636 L-5.571729447206724 21.251211684532308 L-7.5329329547407005 20.391937488337494 L-7.5329329547407005 -7.87202190252545 z"/>
<path fill="#000000" stroke="#000000" d="M0.37365046793212164 -18.458803959231545 L0.37365046793212164 9.805155431631395 L-1.1126046697815712 9.883969095816934 L-1.1126046697815712 -18.379990295046003 z"/>
<path fill="#000000" stroke="#000000" d="M-4.504844339512094 -13.395514554154278 L-4.5048443395120925 14.868444836708662 L-3.6652593591491285 15.739832816715731 L-3.6652593591491303 -12.524126574147209 z"/>
<path fill="#000000" stroke="#000000" d="M-3.4207873759010377 -23.43814475412167 L-3.4207873759010377 4.825814636741269 L-1.1533544932912776 4.525887636916596 L-1.1533544932912776 -23.738071753946343 z"/>
<path fill="#000000" stroke="#000000" d="M-1.1126046697815712 -18.379990295046007 L-1.1126046697815712 9.88396909581693 L-2.4999999999999987 10.269273909791433 L-2.4999999999999987 -17.994685481071503 z"/>
<path fill="#000000" stroke="#000000" d="M-10.62771419662017 -10.274240048322525 L-10.62771419662017 17.989719342540415 L-11.655902867554444 16.52858005075017 L-11.655902867554442 -11.735379340112772 z"/>
<path fill="#000000" stroke="#000000" d="M-5.571729447206731 -22.848504408728566 L-5.571729447206731 5.415454982134367 L-3.4207873759010377 4.825814636741264 L-3.4207873759010377 -23.438144754121666 z"/>
<path fill="#000000" stroke="#000000" d="M-4.944154131125643 -15.45794818709708 L-4.944154131125643 12.806011203765863 L-4.944154131125643 13.860655462900823 L-4.944154131125643 -14.403303927962119 z"/>
<path fill="#000000" stroke="#000000" d="M-7.532932954740707 -21.989230212533755 L-7.532932954740707 6.274729178329188 L-5.571729447206731 5.415454982134371 L-5.571729447206731 -22.84850440872857 z"/>
<path fill="#000000" stroke="#000000" d="M-2.5000000000000044 -17.99468548107149 L-2.500000000000002 10.269273909791444 L-3.6652593591491383 10.92683384995095 L-3.6652593591491405 -17.337125540911984 z"/>
<path fill="#000000" stroke="#000000" d="M-12.5 -14.930626057529594 L-12.5 13.333333333333345 L-12.287163746048774 11.708036202392364 L-12.287163746048774 -16.555923188470576 z"/>
<path fill="#000000" stroke="#000000" d="M-9.237611465258249 -20.88958371770282 L-9.237611465258246 7.37437567316012 L-7.53293295474071 6.274729178329197 L-7.532932954740714 -21.989230212533744 z"/>
<path fill="#000000" stroke="#000000" d="M-4.504844339512095 -16.46573756090492 L-4.504844339512097 11.79822182995802 L-4.944154131125644 12.80601120376586 L-4.944154131125644 -15.457948187097077 z"/>
<path fill="#000000" stroke="#000000" d="M3.4207873759010328 -23.438144754121666 L5.571729447206725 -22.848504408728562 L7.532932954740704 -21.989230212533744 L9.237611465258237 -20.889583717702827 L10.627714196620175 -19.58701206673667 L11.655902867554447 -18.12587277494642 L12.287163746048773 -16.555923188470583 L12.5 -14.930626057529599 L12.287163746048774 -13.305328926588619 L11.655902867554452 -11.735379340112782 L10.62771419662018 -10.274240048322532 L9.23761146525824 -8.971668397356371 L7.532932954740708 -7.872021902525452 L5.5717294472067325 -7.012747706330635 L3.4207873759010408 -6.423107360937533 L1.1533544932912758 -6.123180361112859 L-1.1533544932912676 -6.123180361112859 L-3.420787375901028 -6.4231073609375295 L-5.5717294472067245 -7.012747706330633 L-7.532932954740701 -7.872021902525447 L-9.237611465258235 -8.971668397356366 L-10.627714196620174 -10.274240048322525 L-11.655902867554445 -11.735379340112772 L-12.28716374604877 -13.305328926588613 L-12.5 -14.930626057529594 L-12.287163746048774 -16.555923188470576 L-11.655902867554449 -18.125872774946416 L-10.62771419662018 -19.587012066736662 L-9.237611465258242 -20.889583717702823 L-7.532932954740708 -21.989230212533744 L-5.571729447206732 -22.848504408728562 L-3.420787375901038 -23.438144754121662 L-1.1533544932912778 -23.738071753946336 L1.1533544932912718 -23.738071753946336 M1.8267051218319754 -18.22412353369716 L0.3736504679321217 -18.45880395923154 L-1.1126046697815715 -18.379990295046 L-2.499999999999999 -17.994685481071492 L-3.665259359149131 -17.337125540911988 L-4.504844339512095 -16.465737560904916 L-4.944154131125643 -15.45794818709708 L-4.944154131125643 -14.403303927962117 L-4.504844339512096 -13.395514554154278 L-3.6652593591491325 -12.524126574147209 L-2.5000000000000018 -11.8665666339877 L-1.1126046697815748 -11.481261820013197 L0.37365046793211987 -11.402448155827656 L1.8267051218319752 -11.637128581362033 L3.117449009293669 -12.164450710929515 L4.131193871579974 -12.937559659202975 L4.777864028930706 -13.88776130339559 L5 -14.930626057529597 L4.777864028930703 -15.973490811663607 L4.131193871579974 -16.923692455856216 L3.1174490092936673 -17.69680140412968 z"/>
<path fill="#000000" stroke="#000000" d="M5.571729447206725 5.415454982134378 L3.4207873759010328 4.825814636741275 L1.1533544932912718 4.525887636916605 L-1.1533544932912778 4.525887636916605 L-3.420787375901038 4.825814636741277 L-5.571729447206732 5.41545498213438 L-7.532932954740708 6.2747291783291965 L-9.237611465258242 7.3743756731601176 L-10.62771419662018 8.676947324126278 L-11.655902867554449 10.138086615916523 L-12.287163746048774 11.708036202392364 L-12.5 13.333333333333346 L-12.28716374604877 14.95863046427433 L-11.655902867554445 16.528580050750165 L-10.627714196620174 17.989719342540415 L-9.237611465258235 19.292290993506573 L-7.532932954740701 20.391937488337494 L-5.5717294472067245 21.251211684532308 L-3.420787375901028 21.84085202992541 L-1.1533544932912676 22.140779029750078 L1.1533544932912758 22.140779029750078 L3.4207873759010408 21.840852029925408 L5.5717294472067325 21.251211684532304 L7.532932954740708 20.39193748833749 L9.23761146525824 19.29229099350657 L10.62771419662018 17.989719342540408 L11.655902867554452 16.528580050750154 L12.287163746048774 14.958630464274323 L12.5 13.333333333333343 L12.287163746048773 11.708036202392357 L11.655902867554447 10.138086615916519 L10.627714196620175 8.676947324126271 L9.237611465258237 7.374375673160115 L7.532932954740704 6.274729178329194 M1.8267051218319754 10.039835857165777 L3.1174490092936673 10.567157986733259 L4.131193871579974 11.34026693500672 L4.777864028930703 12.290468579199331 L5 13.333333333333343 L4.777864028930706 14.376198087467351 L4.131193871579974 15.326399731659965 L3.117449009293669 16.099508679933425 L1.8267051218319752 16.626830809500905 L0.37365046793211987 16.861511235035284 L-1.1126046697815748 16.78269757084974 L-2.5000000000000018 16.397392756875238 L-3.6652593591491325 15.739832816715733 L-4.504844339512096 14.868444836708663 L-4.944154131125643 13.860655462900823 L-4.944154131125643 12.80601120376586 L-4.504844339512095 11.798221829958022 L-3.665259359149131 10.92683384995095 L-2.499999999999999 10.269273909791446 L-1.1126046697815715 9.88396909581694 L0.3736504679321217 9.805155431631402 z"/>
</svg>